/* XPM */
static char *stardict_32x32[] = {
/* columns rows colors chars-per-pixel */
"32 32 257 2",
"   c #000000",
".  c #090703",
"X  c #0B0D06",
"o  c #0F0D0B",
"O  c #0D1208",
"+  c #130E08",
"@  c #171006",
"#  c #14110C",
"$  c #131A0C",
"%  c #161512",
"&  c #1A1712",
"*  c #1C1A17",
"=  c #1B2511",
"-  c #241A0B",
";  c #231C12",
":  c #2C200C",
">  c #2A241C",
",  c #282218",
"<  c #263318",
"1  c #2E3D1D",
"2  c #36260E",
"3  c #332613",
"4  c #3F2E14",
"5  c #342A18",
"6  c #3E321D",
"7  c #2F2B26",
"8  c #312C26",
"9  c #383229",
"0  c #3E3931",
"q  c #2F4310",
"w  c #324512",
"e  c #354A14",
"r  c #394717",
"t  c #37461D",
"y  c #3A5017",
"u  c #3C5319",
"i  c #3F591B",
"p  c #344620",
"a  c #402D10",
"s  c #463213",
"d  c #453419",
"f  c #4A3515",
"g  c #493719",
"h  c #49381D",
"j  c #533C19",
"k  c #473A26",
"l  c #403B32",
"z  c #434C1D",
"x  c #435B1D",
"c  c #43561A",
"v  c #5D441D",
"b  c #51511F",
"n  c #444228",
"m  c #474036",
"M  c #464138",
"N  c #4A4235",
"B  c #4D443A",
"V  c #455D2B",
"C  c #43562B",
"Z  c #53412E",
"A  c #51473A",
"S  c #5D4D3A",
"D  c #534939",
"F  c #565924",
"G  c #5D5E32",
"H  c #476020",
"J  c #4D6723",
"K  c #4F6931",
"L  c #536F27",
"P  c #5D6C27",
"I  c #526D33",
"U  c #56722A",
"Y  c #5C7A2D",
"T  c #587637",
"R  c #5F7F30",
"E  c #61471F",
"W  c #614720",
"Q  c #694E23",
"!  c #674B22",
"~  c #604E39",
"^  c #614D36",
"/  c #6D5126",
"(  c #6F5328",
")  c #63533C",
"_  c #695431",
"`  c #73562A",
"'  c #7C5E2F",
"]  c #735E2D",
"[  c #70573A",
"{  c #795F3E",
"}  c #715738",
"|  c #64622D",
" . c #676232",
".. c #696135",
"X. c #697B30",
"o. c #756F3D",
"O. c #7D6032",
"+. c #79693D",
"@. c #7E773B",
"#. c #707331",
"$. c #665743",
"%. c #6B5C44",
"&. c #735D41",
"*. c #6F6047",
"=. c #6F6D46",
"-. c #697D40",
";. c #6B7444",
":. c #786040",
">. c #7C6648",
",. c #7E6C40",
"<. c #7A6F4B",
"1. c #797644",
"2. c #5F803C",
"3. c #628231",
"4. c #64853E",
"5. c #698A36",
"6. c #6B823F",
"7. c #7C8A38",
"8. c #72963B",
"9. c #678940",
"0. c #6A8C42",
"q. c #6E9144",
"w. c #768146",
"e. c #758F41",
"r. c #7E8C4C",
"t. c #719446",
"y. c #749847",
"u. c #769B48",
"i. c #7A9F40",
"p. c #799E4A",
"a. c #7DA34C",
"s. c #7DA343",
"d. c #856C2B",
"f. c #836331",
"g. c #85663C",
"h. c #866837",
"j. c #8E6C37",
"k. c #8F6D38",
"l. c #89713C",
"z. c #946B2E",
"x. c #916F39",
"c. c #99743D",
"v. c #997639",
"b. c #816B4B",
"n. c #8B6E45",
"m. c #836E44",
"M. c #867544",
"N. c #897553",
"B. c #8A7853",
"V. c #927241",
"C. c #947549",
"Z. c #9B7A49",
"A. c #907B57",
"S. c #927E58",
"D. c #987D52",
"F. c #A37E43",
"G. c #A47F4C",
"H. c #838C4E",
"J. c #888F4C",
"K. c #848340",
"L. c #84944C",
"P. c #85994C",
"I. c #8A9251",
"U. c #948C42",
"Y. c #97815A",
"T. c #938157",
"R. c #9E9645",
"E. c #929F53",
"W. c #9C9F54",
"Q. c #81A74E",
"!. c #82AA46",
"~. c #83AB4E",
"^. c #8AAF4C",
"/. c #86AE50",
"(. c #8CA852",
"). c #8BB34E",
"_. c #8FBA4E",
"`. c #87B051",
"'. c #8BB453",
"]. c #8EB954",
"[. c #9FA55C",
"{. c #9FA955",
"}. c #9FAB5D",
"|. c #95A954",
" X c #90B754",
".X c #92BC55",
"XX c #96BE58",
"oX c #9DB855",
"OX c #AD8547",
"+X c #A48249",
"@X c #A78351",
"#X c #AD8955",
"$X c #A98550",
"%X c #A49B4B",
"&X c #A69359",
"*X c #B58C4B",
"=X c #B58D54",
"-X c #BA904E",
";X c #B59351",
":X c #BB9354",
">X c #B8955A",
",X c #BD9958",
"<X c #B39862",
"1X c #A9A756",
"2X c #AEB05D",
"3X c #ADBD5F",
"4X c #B1A95D",
"5X c #B4AE66",
"6X c #BFB564",
"7X c #B1B265",
"8X c #97C058",
"9X c #9CC35B",
"0X c #9DCB59",
"qX c #97C455",
"wX c #A9C15B",
"eX c #A3D35D",
"rX c #A8D85F",
"tX c #A7D760",
"yX c #ACDD62",
"uX c #BFD066",
"iX c #AFE163",
"pX c #B3E466",
"aX c #B6EA69",
"sX c #B8EC6A",
"dX c #C19759",
"fX c #C39B5C",
"gX c #CB9E57",
"hX c #C99D5C",
"jX c #C39853",
"kX c #C79E60",
"lX c #C7A05F",
"zX c #CDA25D",
"xX c #D2A45B",
"cX c #C4AA64",
"vX c #CCA563",
"bX c #CCAA65",
"nX c #CDAB69",
"mX c #C3B468",
"MX c #CDB770",
"NX c #C8BA70",
"BX c #D6A760",
"VX c #D7A860",
"CX c #D2AD68",
"ZX c #DDAC62",
"AX c #D5B36B",
"SX c #D4BC6C",
"DX c #DAB56C",
"FX c #DCB96E",
"GX c #D8B362",
"HX c #DDBD74",
"JX c #DCBF78",
"KX c #E3B264",
"LX c #E2BD72",
"PX c #E6C175",
"IX c #E5C17A",
"UX c #E9C27A",
"YX c None",
/* pixels */
"YXYXYXYXYXYXYXYXYXYXYXYXYXYXYXYXYXYXO O YXYXYXYXYXYXYXYXYXYXYXYX",
"YXYXYXYXYXYXYXYXYXYXYXYXYXYXYX. X 1 I K 1   YXYXYXYXYXYXYXYXYXYX",
"YXYXYXYXYXYXYXYXYXYXYXYXYX- 5 G 6.0.0.0.4.p   YXYXYXYXYXYXYXYXYX",
"YXYXYXYXYXYXYX  o X 3 _ _ M.P.u.y.t.q.0.9.4.V = YXYXYXYXYXYXYXYX",
"YXYXYXYXYX. 6 k G.G.+X&X|.a.a.a.u.u.t.q.0.9.9.T < X YXYXYXYXYXYX",
"YXYX- ' V.V.dXdX:X1X|.'.`./.a.a.a.u.y.t.q.0.9.9.4.V X YXYXYXYXYX",
"YXYX3 *XKXKXzX,X1X9X.X'.'.`./.a.a.a.p.u.t.q.q.9.9.4.K =   YXYXYX",
"YX  g c.xXGXuXwX'.8X9XXX'.'.`.~.a.a.a.u.u.t.q.q.9.9.9.T t   YXYX",
"YX  j f.jXGXpXaX0X).8X0XXX].'.`././.a.a.u.y.t.t.q.0.9.4.2.p $ YX",
"YX. s ` OX%X).yXsXeX)..X9XXX].'.`.`.a.a.a.a.u.t.q.q.0.9.4.4.I $ ",
"YX. a E v.#.3.^.rXsXtX]. X9X8X].'.`.`./.a.a.p.u.y.q.q.0.8.P.o.  ",
"YX  - j f.b i R !.eXaXyX_.].9X8X.X'.`.`./.a.a.a.u.y.q.t.W.lX9 YX",
"YXYX@ f ( b q u R !.eXsXpX_.).9X9X.X'.'.`./.a.a.a.y.P.4XDXnX# YX",
"YXYX. 2 E ] z q u L 8.0XaXpXqX).8X9X].].`.`./.a.a.|.mXFXPXAX; YX",
"YXYXYX- j f.l.F q y L 8.qXpXsX0X`.XX9X.X].'.`.`.2XAXFXPXUXJX1.X ",
"YXYXYX+ f / F.;X| w e L 8..XpXaX0X`.XX9XXX'.oX6XDXLXPXUXMXH.C O ",
"YXYXYX. a E x.gX,X .w e J 5._.pXsXeX).].9XwXSXLXLXUXJX5X-.= . YX",
"YXYXYX  - j f.-XZX>X..w e x 5.).yXsXtX^.1XSXPXIXUXJX1Xw.n YXYXYX",
"YXYXYXYX@ g / F.ZXVX#X..w w x 3.!.rXpXR.:XLXIXIXNXE.;.%.k . YXYX",
"YXYXYXYX. 3 E x.zXKXhX#X..r w u 3.s.3Xv.fXLXJX7XL.=.%.$.D * YXYX",
"YXYXYXYXYX: j ' -XKXxXhX#X+.z w i U 7.z.;XmX}.H.<.b.B.$.B * YXYX",
"YXYXYXYXYXo d / F.ZXKXvXfX#X,.z q u P d.U.(.H.B.A.B.S.>.B 8   YX",
"YXYXYXYXYX. 6 v x.gXKXvXkX:X#Xm.z q c X.e.I.T.Y.S.A.N.>.S 0 . YX",
"YXYXYXYXYX. 8 j ' -XKXBXkXdX:X@XM.F q U J.&X<X&XD.b.&.[ S 7   YX",
"YXYXYXYXYXYX& h Q F.ZXKXhXfXdXhXCXvX@.K.bXnX>XC.m.[ S B 0 o YXYX",
"YXYXYXYXYXYX. 5 v k.jX:XBXAXDXLXLXHXHXFXvX#Xn.+.^ l 9 7 o YXYXYX",
"YXYXYXYXYXYXYX> j ' j.' AXHXLXHXLXCXfX@Xn.:.S M 8 # .   YXYXYXYX",
"YXYXYXYXYXYXYX# d Q Q h.DXHXDXBXfX#XC.&.D l 7 % . YXYXYXYXYXYXYX",
"YXYXYXYXYXYXYX. k j v ` fXvXfX=XC.&.A 9 * .   YXYXYXYXYXYXYXYXYX",
"YXYXYXYXYXYXYX  ; d j Q ' g.n.) N 9 * . YXYXYXYXYXYXYXYXYXYXYXYX",
"YXYXYXYXYXYXYXYX  X 2 4 k l 8 %   .   YXYXYXYXYXYXYXYXYXYXYXYXYX",
"YXYXYXYXYXYXYXYXYXYXYX  & &   YXYXYXYXYXYXYXYXYXYXYXYXYXYXYXYXYX"
};
