/* XPM */
static char *stardict_16x16[] = {
/* columns rows colors chars-per-pixel */
"16 16 192 2",
"   c #000000",
".  c #010100",
"X  c #020100",
"o  c #020101",
"O  c #020201",
"+  c #020202",
"@  c #020401",
"#  c #040301",
"$  c #040403",
"%  c #050402",
"&  c #050404",
"*  c #060504",
"=  c #060605",
"-  c #060803",
";  c #080602",
":  c #080603",
">  c #0C0B0A",
",  c #110D06",
"<  c #120C04",
"1  c #110E09",
"2  c #120D08",
"3  c #11170B",
"4  c #12180B",
"5  c #191F0F",
"6  c #141310",
"7  c #181511",
"8  c #1A1713",
"9  c #1C2511",
"0  c #231A0C",
"q  c #271D0C",
"w  c #2A1D0C",
"e  c #262014",
"r  c #232C15",
"t  c #292011",
"y  c #292012",
"u  c #2D2214",
"i  c #2F281E",
"p  c #342A1D",
"a  c #392B16",
"s  c #39371E",
"d  c #2D2720",
"f  c #3A3227",
"g  c #38322A",
"h  c #393C21",
"j  c #33431F",
"k  c #354721",
"l  c #3B4023",
"z  c #443216",
"x  c #473316",
"c  c #46351B",
"v  c #443E22",
"b  c #42392D",
"n  c #44392C",
"m  c #404F19",
"M  c #425B1D",
"N  c #48521F",
"B  c #49551F",
"V  c #465D2B",
"C  c #495120",
"Z  c #534125",
"A  c #5D4622",
"S  c #515525",
"D  c #5B5B2A",
"F  c #5F5038",
"G  c #486120",
"H  c #4D6824",
"J  c #546525",
"K  c #526D33",
"L  c #536F34",
"P  c #5D6934",
"I  c #547128",
"U  c #5C7A2D",
"Y  c #614922",
"T  c #624822",
"R  c #664C23",
"E  c #615023",
"W  c #6F552C",
"Q  c #66533A",
"!  c #68553C",
"~  c #607F3B",
"^  c #74662E",
"/  c #7E613A",
"(  c #7C7630",
")  c #6D6645",
"_  c #7A6446",
"`  c #7C6A4E",
"'  c #658533",
"]  c #66883F",
"[  c #68863F",
"{  c #688A41",
"}  c #6B8D42",
"|  c #6C8F43",
" . c #6D8F43",
".. c #729245",
"X. c #719445",
"o. c #729546",
"O. c #739646",
"+. c #739746",
"@. c #789D49",
"#. c #799E4A",
"$. c #799F4A",
"%. c #7EA44C",
"&. c #7FA54D",
"*. c #7FA74D",
"=. c #816231",
"-. c #846432",
";. c #896936",
":. c #857039",
">. c #847651",
",. c #93764A",
"<. c #95774C",
"1. c #9E7D48",
"2. c #907752",
"3. c #9D7F50",
"4. c #A47E43",
"5. c #8F914E",
"6. c #8E954E",
"7. c #998349",
"8. c #9E834D",
"9. c #949A4F",
"0. c #909156",
"q. c #989659",
"w. c #80A64D",
"e. c #86A24E",
"r. c #83AB47",
"t. c #84AC4F",
"y. c #85AD50",
"u. c #85AE50",
"i. c #86AF51",
"p. c #8AA650",
"a. c #8BB54C",
"s. c #8AB453",
"d. c #8BB553",
"f. c #8CB654",
"g. c #8EB754",
"h. c #90B955",
"j. c #93BE51",
"k. c #93BD57",
"l. c #94BD57",
"z. c #95BE56",
"x. c #95BE57",
"c. c #97BF55",
"v. c #96BE57",
"b. c #96BF56",
"n. c #95BE58",
"m. c #96BE58",
"M. c #9EB757",
"N. c #9FB259",
"B. c #A68044",
"V. c #A0814D",
"C. c #A0824D",
"Z. c #A88B4D",
"A. c #A18A5A",
"S. c #A49A52",
"D. c #AD9955",
"F. c #B2994F",
"G. c #B89A5C",
"H. c #A3AB4D",
"J. c #AAA25F",
"K. c #B5AD5F",
"L. c #B0B85F",
"P. c #B9A764",
"I. c #96C056",
"U. c #99C655",
"Y. c #9FCD59",
"T. c #A1D15D",
"R. c #A5D45E",
"E. c #A7D75F",
"W. c #A8D15D",
"Q. c #AADB61",
"!. c #C39853",
"~. c #C49A5C",
"^. c #C89C57",
"/. c #D4A55E",
"(. c #C7A866",
"). c #C8A362",
"_. c #CDA462",
"`. c #CCA862",
"'. c #CDAC66",
"]. c #C0B760",
"[. c #CCB769",
"{. c #D3A662",
"}. c #D2AB67",
"|. c #D6AB60",
" X c #DAAB62",
".X c #D5B069",
"XX c #DCB56C",
"oX c #D2BC72",
"OX c #DDBF72",
"+X c #E1BF76",
"@X c #E4BF75",
"#X c None",
/* pixels */
"#X#X#X#X#X#X#X% 5 k 3 #X#X#X#X#X",
"#X#X#X  2 u v P { { K 9   #X#X#X",
"#Xy Z / 7.9.p.%.@...| ~ k - #X#X",
"  W |.].M.x.s.y.%.@.X.| { V 4 #X",
"; T F.W.T.c.x.d.y.w.@.X.| { L r ",
"% x ^ ' Y.R.z.x.f.y.w.%.X...6.s ",
"#Xw E m U U.Q.z.x.g.i.w.e.K.(.e ",
"#X< T :.B I j.Q.I.x.h.N.[.@XP.h ",
"#X% z B.Z.C H a.Q.c.L.OX+XJ.l @ ",
"#X#Xw -./.8.C G r.H.`.oXq.) i #X",
"#X#X, A !.{.V.S M ( S.0.>.` g   ",
"#X#X= c B. X~.V.D J 5.A.2._ n = ",
"#X#X  y =.^._.}.'.D.G.<.Q b 7 #X",
"#X#X#X2 A ;..XXX).V.! g 6 = #X#X",
"#X#X#X= a R 1.,.Q d >   #X#X#X#X",
"#X#X#X#X: 0 p 7 =   #X#X#X#X#X#X"
};
